<svg width="42" height="42" viewBox="0 0 42 42" fill="none" xmlns="http://www.w3.org/2000/svg">
<path d="M19.2256 17.4002L5.62144 31.0775C5.33228 31.3682 5.10289 31.7133 4.94635 32.0931C4.78989 32.4729 4.70926 32.88 4.70926 33.2911C4.70926 33.7022 4.78972 34.1093 4.94618 34.4891C5.10264 34.869 5.33203 35.2141 5.62118 35.5048C5.91024 35.7956 6.25352 36.0262 6.63133 36.1835C7.00906 36.3409 7.41397 36.4219 7.82291 36.4219C8.23184 36.4219 8.63676 36.341 9.01457 36.1837C9.39238 36.0264 9.73565 35.7959 10.0248 35.5052L15.7748 29.7243C16.0071 29.5503 16.2939 29.4661 16.5829 29.487C16.8719 29.5079 17.1437 29.6326 17.3489 29.8382C17.5779 30.0674 17.7078 30.3781 17.7102 30.7029C17.7126 31.0278 17.5874 31.3405 17.3617 31.573L13.1526 35.8047C12.5687 36.3918 12.2407 37.1881 12.2407 38.0184C12.2408 38.8486 12.5689 39.6449 13.1529 40.232C13.7369 40.819 14.529 41.1488 15.3548 41.1488C16.1807 41.1487 16.9727 40.8188 17.5566 40.2316L29.2889 28.4357C29.4013 28.3226 29.5348 28.233 29.6818 28.1718C29.8286 28.1106 29.9861 28.0791 30.1452 28.0791C30.3042 28.0791 30.4616 28.1106 30.6086 28.1718C30.7554 28.233 30.889 28.3226 31.0014 28.4357C31.1138 28.5488 31.203 28.683 31.2639 28.8306C31.3248 28.9784 31.3561 29.1367 31.3561 29.2966C31.3561 29.4565 31.3248 29.6147 31.2639 29.7625C31.203 29.9102 31.1138 30.0444 31.0014 30.1575L30.2769 30.8827C29.693 31.4699 29.365 32.2662 29.3651 33.0965C29.3651 33.9268 29.6932 34.723 30.2773 35.3101C30.8612 35.8972 31.6532 36.2269 32.4791 36.2268C33.305 36.2268 34.0969 35.8969 34.6809 35.3098L39.6016 30.3627C40.1855 29.7756 40.5137 28.9793 40.5138 28.1491C40.5138 27.3188 40.1858 26.5225 39.6018 25.9354C39.0179 25.3482 38.2259 25.0183 37.4001 25.0182C36.5742 25.0182 35.7822 25.348 35.1982 25.935L34.4841 26.6554C34.257 26.8837 33.9488 27.0119 33.6276 27.0119C33.3064 27.0119 32.9984 26.8835 32.7713 26.6551C32.5441 26.4267 32.4167 26.1169 32.4167 25.794C32.4167 25.471 32.5444 25.1613 32.7716 24.933L40.1268 17.5419C40.7108 16.9548 41.0388 16.1585 41.0387 15.3282C41.0386 14.4979 40.7105 13.7016 40.1265 13.1146C39.5425 12.5275 38.7505 12.1977 37.9246 12.1978C37.0988 12.1979 36.3068 12.5277 35.7228 13.1149L20.8444 28.0703C20.6132 28.2972 20.3023 28.4233 19.9792 28.421C19.6561 28.4187 19.3469 28.2882 19.119 28.0579C18.9145 27.8514 18.7907 27.5778 18.7701 27.2871C18.7495 26.9964 18.8335 26.7078 19.0068 26.4742L28.4706 16.9608C29.042 16.371 29.3594 15.5788 29.354 14.7555C29.3486 13.9322 29.021 13.1442 28.4419 12.562C27.8628 11.9799 27.0791 11.6505 26.2602 11.6451C25.4413 11.6396 24.6532 11.9587 24.0666 12.5331L22.2762 14.3332C22.0461 14.4696 21.7774 14.5254 21.5124 14.4919C21.2474 14.4584 21.0008 14.3376 20.8113 14.1483C20.5822 13.9192 20.4523 13.6085 20.4499 13.2836C20.4474 12.9587 20.5728 12.6461 20.7984 12.4136L27.8577 5.31587C28.4291 4.72611 28.7464 3.9338 28.741 3.11055C28.7356 2.28721 28.4079 1.49918 27.8289 0.917027C27.2499 0.334875 26.466 0.00545344 25.6472 6.71024e-05C24.8283 -0.00531923 24.0403 0.313758 23.4537 0.888215L11.7189 12.6841C11.4918 12.9125 11.1837 13.0407 10.8625 13.0406C10.5412 13.0406 10.2332 12.9122 10.0061 12.6839C9.779 12.4554 9.65144 12.1457 9.65152 11.8227C9.65161 11.4998 9.77926 11.1901 10.0064 10.9618L13.3022 7.65072C13.6 7.36208 13.8376 7.01667 14.0012 6.63458C14.1648 6.25258 14.2509 5.84159 14.2547 5.42565C14.2585 5.00979 14.1798 4.59726 14.0233 4.21227C13.8667 3.82727 13.6354 3.4775 13.3429 3.18339C13.0504 2.88928 12.7025 2.65673 12.3196 2.49933C11.9366 2.34193 11.5263 2.26284 11.1126 2.26669C10.699 2.27045 10.2902 2.35715 9.91016 2.52156C9.5302 2.68597 9.18659 2.92485 8.89949 3.22434L1.40932 10.7541C0.825374 11.3411 0.497235 12.1374 0.497149 12.9677C0.497149 13.3788 0.577603 13.7859 0.734064 14.1658C0.890524 14.5456 1.11991 14.8907 1.40906 15.1814C1.69813 15.4722 2.0414 15.7028 2.41922 15.8601C2.79694 16.0175 3.20186 16.0985 3.61079 16.0985C4.43661 16.0985 5.22866 15.7688 5.81269 15.1818L6.52557 14.465C6.75265 14.2367 7.0607 14.1083 7.38191 14.1082C7.70312 14.1082 8.01126 14.2364 8.23842 14.4648C8.46559 14.693 8.59324 15.0028 8.59332 15.3257C8.59332 15.6487 8.46576 15.9584 8.23868 16.1868L0.883427 23.5779C0.312048 24.1677 -0.00531888 24.96 6.74581e-05 25.7833C0.00545379 26.6065 0.333081 27.3945 0.912154 27.9767C1.49123 28.5588 2.27498 28.8883 3.09388 28.8937C3.91277 28.8991 4.7008 28.58 5.2874 28.0056L17.3151 15.9151C17.5464 15.6882 17.8573 15.5622 18.1805 15.5646C18.5036 15.5671 18.8127 15.6976 19.0405 15.928C19.2289 16.1183 19.3492 16.366 19.3827 16.6324C19.4162 16.8987 19.3609 17.1687 19.2256 17.4002Z" fill="#FF5678"/>
</svg>
