<svg width="80" height="80" viewBox="0 0 80 80" fill="none" xmlns="http://www.w3.org/2000/svg">
<rect x="3.49691e-06" y="80" width="80" height="80" rx="40" transform="rotate(-90 3.49691e-06 80)" fill="#2B2B2B"/>
<path d="M18.0542 38.4405C17.4484 38.7434 17.4484 39.7279 18.0542 40.0308C22.7495 42.6057 27.5205 44.9533 32.6702 46.3164C33.4275 46.4679 34.1848 45.6349 33.7304 44.9533C32.6702 43.4387 31.3828 42.1513 29.8682 41.0153C40.4704 41.3182 51.4513 42.7571 61.9021 40.258C62.6594 40.1066 62.5079 38.8193 61.7505 38.895C50.9211 40.258 40.1674 39.1978 29.3379 39.0465C30.4739 37.759 31.6098 36.4716 32.7458 35.2599C33.2759 34.7298 32.973 33.5938 32.0642 33.6695C27.0661 34.2754 22.3709 35.9415 18.0542 38.4405ZM27.0661 39.2735C26.3846 39.7279 26.536 41.0153 27.5963 41.0153C27.672 41.0153 27.7477 41.0153 27.7477 41.0153C28.6565 41.9241 29.5652 42.7571 30.474 43.7416C26.9904 42.5299 23.734 41.0153 20.4776 39.2737C23.4311 37.759 26.4603 36.6231 29.7167 36.0172C28.9594 36.8503 28.2021 37.759 27.3691 38.5922C27.0661 38.7434 26.9904 39.0465 27.0661 39.2735Z" fill="white"/>
<path d="M19.6001 38.8002L31.2001 35.2002L28.0001 39.6002C29.4668 41.3335 32.1601 44.8802 31.2001 45.2002C30.2401 45.5202 23.0668 41.0669 19.6001 38.8002Z" fill="white"/>
</svg>
