<svg width="128" height="41" viewBox="0 0 128 41" fill="none" xmlns="http://www.w3.org/2000/svg">
<g clip-path="url(#clip0_75_6916)">
<path d="M35.0065 13.2912C35.3135 13.6 35.7048 13.8103 36.1308 13.8954C36.5567 13.9806 36.9982 13.9369 37.3995 13.7698C37.8008 13.6028 38.1437 13.3198 38.385 12.9567C38.6263 12.5936 38.7551 12.1668 38.7551 11.7302C38.7551 11.2936 38.6263 10.8667 38.385 10.5036C38.1437 10.1406 37.8008 9.85763 37.3995 9.69049C36.9982 9.52341 36.5567 9.4797 36.1308 9.56489C35.7048 9.65009 35.3135 9.8604 35.0065 10.1692C34.5946 10.5832 34.3633 11.1447 34.3633 11.7302C34.3633 12.3157 34.5946 12.8772 35.0065 13.2912Z" fill="#FF5678"/>
<path d="M26.4419 17.4602L12.8377 31.1376C12.5486 31.4283 12.3192 31.7733 12.1627 32.1532C12.0062 32.533 11.9256 32.94 11.9256 33.3512C11.9256 33.7623 12.006 34.1694 12.1625 34.5492C12.3189 34.929 12.5483 35.2742 12.8375 35.5649C13.1266 35.8557 13.4698 36.0862 13.8476 36.2436C14.2254 36.401 14.6303 36.4819 15.0392 36.482C15.4481 36.482 15.8531 36.401 16.2309 36.2437C16.6087 36.0865 16.952 35.8559 17.2411 35.5652L22.9911 29.7843C23.2234 29.6103 23.5102 29.5261 23.7992 29.5471C24.0882 29.5679 24.36 29.6927 24.5652 29.8983C24.7942 30.1274 24.9241 30.4381 24.9266 30.763C24.929 31.0878 24.8037 31.4006 24.578 31.633L20.369 35.8647C19.785 36.4518 19.457 37.2481 19.457 38.0784C19.4571 38.9087 19.7853 39.7049 20.3692 40.292C20.9532 40.8791 21.7453 41.2088 22.5711 41.2088C23.397 41.2087 24.189 40.8789 24.7729 40.2917L36.5052 28.4958C36.6176 28.3827 36.7511 28.2931 36.8981 28.2319C37.045 28.1706 37.2024 28.1392 37.3615 28.1392C37.5205 28.1392 37.6779 28.1706 37.8249 28.2319C37.9717 28.2931 38.1053 28.3827 38.2177 28.4958C38.3302 28.6088 38.4193 28.743 38.4802 28.8907C38.5411 29.0384 38.5724 29.1968 38.5724 29.3567C38.5724 29.5165 38.5411 29.6748 38.4802 29.8225C38.4193 29.9703 38.3302 30.1045 38.2177 30.2175L37.4932 30.9428C36.9093 31.53 36.5813 32.3262 36.5814 33.1566C36.5814 33.9869 36.9095 34.7831 37.4936 35.3702C38.0775 35.9572 38.8696 36.287 39.6955 36.2869C40.5213 36.2869 41.3132 35.957 41.8972 35.3699L46.8179 30.4227C47.4019 29.8357 47.73 29.0394 47.7301 28.2091C47.7301 27.3788 47.4021 26.5825 46.8182 25.9954C46.2342 25.4082 45.4423 25.0784 44.6164 25.0783C43.7905 25.0783 42.9985 25.408 42.4145 25.9951L41.7005 26.7155C41.4733 26.9437 41.1652 27.072 40.8439 27.072C40.5227 27.0719 40.2147 26.9436 39.9876 26.7151C39.7604 26.4868 39.633 26.177 39.633 25.8541C39.633 25.5311 39.7607 25.2214 39.9879 24.993L47.3431 17.602C47.9271 17.0149 48.2551 16.2185 48.255 15.3883C48.2549 14.5579 47.9268 13.7617 47.3429 13.1747C46.7588 12.5875 45.9668 12.2578 45.141 12.2579C44.3151 12.2579 43.5231 12.5878 42.9391 13.1749L28.0607 28.1304C27.8295 28.3573 27.5186 28.4834 27.1955 28.4811C26.8724 28.4788 26.5632 28.3483 26.3353 28.118C26.1308 27.9114 26.007 27.6378 25.9864 27.3471C25.9658 27.0564 26.0498 26.7679 26.2231 26.5343L35.6869 17.0208C36.2583 16.4311 36.5757 15.6389 36.5703 14.8155C36.5649 13.9923 36.2373 13.2042 35.6582 12.6221C35.0791 12.0399 34.2954 11.7105 33.4765 11.7051C32.6576 11.6997 31.8695 12.0187 31.2829 12.5932L29.4925 14.3932C29.2624 14.5296 28.9938 14.5854 28.7287 14.5519C28.4637 14.5185 28.2171 14.3977 28.0276 14.2084C27.7985 13.9793 27.6686 13.6686 27.6662 13.3437C27.6638 13.0188 27.7891 12.7061 28.0147 12.4737L35.074 5.37593C35.6454 4.78616 35.9627 3.99386 35.9573 3.17061C35.952 2.34727 35.6242 1.55924 35.0453 0.977085C34.4662 0.394934 33.6823 0.065512 32.8635 0.0601257C32.0446 0.0547394 31.2566 0.373817 30.67 0.948273L18.9352 12.7442C18.7081 12.9725 18.4 13.1008 18.0788 13.1007C17.7575 13.1006 17.4496 12.9723 17.2224 12.7439C16.9953 12.5155 16.8677 12.2057 16.8678 11.8828C16.8679 11.5599 16.9956 11.2501 17.2227 11.0218L20.5185 7.71077C20.8164 7.42214 21.054 7.07673 21.2175 6.69464C21.3811 6.31263 21.4672 5.90165 21.471 5.4857C21.4749 5.06985 21.3961 4.65732 21.2396 4.27233C21.083 3.88733 20.8518 3.53756 20.5592 3.24345C20.2667 2.94934 19.9188 2.71679 19.5359 2.55939C19.1529 2.40198 18.7426 2.3229 18.3289 2.32675C17.9153 2.33051 17.5065 2.4172 17.1265 2.58162C16.7465 2.74603 16.4029 2.98491 16.1158 3.2844L8.62563 10.8142C8.04168 11.4012 7.71354 12.1975 7.71346 13.0278C7.71346 13.4388 7.79391 13.846 7.95037 14.2258C8.10683 14.6056 8.33622 14.9508 8.62537 15.2415C8.91444 15.5322 9.25771 15.7628 9.63552 15.9201C10.0133 16.0775 10.4182 16.1585 10.8271 16.1586C11.6529 16.1586 12.445 15.8288 13.029 15.2418L13.7419 14.5251C13.969 14.2967 14.277 14.1684 14.5982 14.1683C14.9194 14.1682 15.2276 14.2965 15.4547 14.5248C15.6819 14.7531 15.8095 15.0629 15.8096 15.3858C15.8096 15.7087 15.6821 16.0185 15.455 16.2468L8.09974 23.638C7.52836 24.2278 7.21099 25.0201 7.21638 25.8433C7.22176 26.6666 7.54939 27.4546 8.12846 28.0368C8.70754 28.6189 9.49129 28.9483 10.3102 28.9538C11.1291 28.9592 11.9171 28.6401 12.5037 28.0656L24.5314 15.9751C24.7627 15.7482 25.0736 15.6223 25.3968 15.6247C25.7199 15.6271 26.029 15.7577 26.2568 15.988C26.4452 16.1783 26.5655 16.426 26.599 16.6924C26.6325 16.9588 26.5773 17.2288 26.4419 17.4602Z" fill="#FF5678"/>
</g>
<path d="M71.4967 10.764L64.2167 11.156L62.7047 14.936L60.6327 14.656L61.2767 9.14H75.4727L76.1447 10.624L66.0087 26.36L64.0767 28.292L72.7007 27.732L74.2687 23.392L76.3967 23.812L75.7527 30H60.3527L59.4847 28.516L69.8447 12.696L71.4967 10.764ZM85.5323 30.308C83.0683 30.308 81.2296 29.5893 80.0163 28.152C78.8216 26.696 78.2243 24.7173 78.2243 22.216C78.2243 20.536 78.5323 19.08 79.1483 17.848C79.783 16.616 80.6696 15.6733 81.8083 15.02C82.947 14.3667 84.263 14.04 85.7563 14.04C87.623 14.04 89.0603 14.5347 90.0683 15.524C91.0763 16.4947 91.599 17.8853 91.6363 19.696C91.6363 20.928 91.5616 21.8427 91.4123 22.44H82.3123C82.387 24.1387 82.7883 25.464 83.5163 26.416C84.2443 27.3493 85.2803 27.816 86.6243 27.816C87.3523 27.816 88.099 27.6947 88.8643 27.452C89.6483 27.2093 90.2643 26.92 90.7123 26.584L91.4123 28.124C90.9083 28.6653 90.087 29.1693 88.9483 29.636C87.8283 30.084 86.6896 30.308 85.5323 30.308ZM87.7163 20.76C87.7536 20.2373 87.7723 19.836 87.7723 19.556C87.7723 17.0733 86.9416 15.832 85.2803 15.832C84.3656 15.832 83.6563 16.196 83.1523 16.924C82.6483 17.652 82.3683 18.9307 82.3123 20.76H87.7163ZM92.6108 7.656L97.7348 7.04H97.7908L98.5748 7.572V15.832C99.0788 15.328 99.6948 14.908 100.423 14.572C101.17 14.2173 101.972 14.04 102.831 14.04C104.623 14.04 106.079 14.6747 107.199 15.944C108.338 17.1947 108.907 19.1173 108.907 21.712C108.907 23.3173 108.571 24.7733 107.899 26.08C107.227 27.3867 106.256 28.4227 104.987 29.188C103.736 29.9347 102.28 30.308 100.619 30.308C99.1442 30.308 97.8655 30.1867 96.7828 29.944C95.7002 29.6827 95.0095 29.4493 94.7108 29.244V9.448L92.6108 9.112V7.656ZM101.347 16.504C100.787 16.504 100.255 16.6347 99.7508 16.896C99.2655 17.1387 98.8735 17.4187 98.5748 17.736V27.956C98.6868 28.1613 98.9482 28.3293 99.3588 28.46C99.7695 28.5907 100.236 28.656 100.759 28.656C101.954 28.656 102.906 28.1053 103.615 27.004C104.343 25.884 104.707 24.232 104.707 22.048C104.707 20.1627 104.399 18.772 103.783 17.876C103.167 16.9613 102.355 16.504 101.347 16.504ZM109.919 7.656L115.043 7.04H115.099L115.883 7.572V15.832C116.387 15.328 117.003 14.908 117.731 14.572C118.478 14.2173 119.281 14.04 120.139 14.04C121.931 14.04 123.387 14.6747 124.507 15.944C125.646 17.1947 126.215 19.1173 126.215 21.712C126.215 23.3173 125.879 24.7733 125.207 26.08C124.535 27.3867 123.565 28.4227 122.295 29.188C121.045 29.9347 119.589 30.308 117.927 30.308C116.453 30.308 115.174 30.1867 114.091 29.944C113.009 29.6827 112.318 29.4493 112.019 29.244V9.448L109.919 9.112V7.656ZM118.655 16.504C118.095 16.504 117.563 16.6347 117.059 16.896C116.574 17.1387 116.182 17.4187 115.883 17.736V27.956C115.995 28.1613 116.257 28.3293 116.667 28.46C117.078 28.5907 117.545 28.656 118.067 28.656C119.262 28.656 120.214 28.1053 120.923 27.004C121.651 25.884 122.015 24.232 122.015 22.048C122.015 20.1627 121.707 18.772 121.091 17.876C120.475 16.9613 119.663 16.504 118.655 16.504Z" fill="#FF5678"/>
<defs>
<clipPath id="clip0_75_6916">
<rect width="54.8688" height="59.6924" fill="white" transform="translate(0 -9.34619)"/>
</clipPath>
</defs>
</svg>
