<svg width="80" height="80" viewBox="0 0 80 80" fill="none" xmlns="http://www.w3.org/2000/svg">
<rect x="80" width="80" height="80" rx="40" transform="rotate(90 80 0)" fill="#2B2B2B"/>
<path d="M61.9455 41.5595C62.5514 41.2566 62.5514 40.2721 61.9455 39.9692C57.2502 37.3943 52.4792 35.0467 47.3296 33.6836C46.5723 33.5321 45.815 34.3651 46.2694 35.0467C47.3296 36.5613 48.617 37.8487 50.1316 38.9847C39.5294 38.6818 28.5485 37.2429 18.0977 39.742C17.3404 39.8934 17.4918 41.1807 18.2493 41.105C29.0787 39.742 39.8324 40.8022 50.6618 40.9535C49.5259 42.241 48.3899 43.5284 47.254 44.7401C46.7239 45.2702 47.0268 46.4062 47.9355 46.3305C52.9336 45.7246 57.6289 44.0585 61.9455 41.5595ZM52.9336 40.7265C53.6152 40.2721 53.4637 38.9847 52.4035 38.9847C52.3278 38.9847 52.252 38.9847 52.252 38.9847C51.3433 38.0759 50.4345 37.2429 49.5258 36.2584C53.0093 37.4701 56.2657 38.9847 59.5222 40.7264C56.5687 42.241 53.5395 43.3769 50.2831 43.9828C51.0404 43.1497 51.7977 42.241 52.6307 41.4078C52.9336 41.2566 53.0093 40.9535 52.9336 40.7265Z" fill="white"/>
<path d="M60.3999 41.1998L48.7999 44.7998L51.9999 40.3998C50.5332 38.6665 47.8399 35.1198 48.7999 34.7998C49.7599 34.4798 56.9332 38.9331 60.3999 41.1998Z" fill="white"/>
</svg>
