<svg width="29" height="27" viewBox="0 0 29 27" fill="none" xmlns="http://www.w3.org/2000/svg">
<path d="M28.0627 9.50747L19.3691 8.27564L15.4828 0.594228C15.3766 0.383916 15.202 0.213663 14.9863 0.110176C14.4453 -0.150211 13.7879 0.0667782 13.5174 0.594228L9.63108 8.27564L0.937449 9.50747C0.697766 9.54085 0.478627 9.65102 0.310849 9.81793C0.108015 10.0212 -0.00375586 10.2946 9.63727e-05 10.5782C0.0039486 10.8618 0.123109 11.1322 0.331393 11.3302L6.62135 17.3091L5.13532 25.7516C5.10047 25.948 5.12276 26.15 5.19967 26.3346C5.27657 26.5193 5.405 26.6793 5.57041 26.7964C5.73581 26.9135 5.93157 26.9831 6.13548 26.9973C6.33939 27.0115 6.5433 26.9697 6.72408 26.8766L14.5001 22.8907L22.2761 26.8766C22.4884 26.9868 22.7349 27.0235 22.9711 26.9834C23.5669 26.8833 23.9675 26.3325 23.8648 25.7516L22.3788 17.3091L28.6687 11.3302C28.8399 11.1666 28.9529 10.9529 28.9872 10.7193C29.0796 10.1351 28.6619 9.59426 28.0627 9.50747Z" fill="#FFC107"/>
</svg>
