<svg width="50" height="50" viewBox="0 0 50 50" fill="none" xmlns="http://www.w3.org/2000/svg">
<path fill-rule="evenodd" clip-rule="evenodd" d="M25 0C11.1929 0 0 11.1929 0 25C0 38.8071 11.1929 50 25 50C38.8071 50 50 38.8071 50 25C50 18.3696 47.3661 12.0107 42.6777 7.32233C37.9893 2.63392 31.6304 0 25 0ZM45.0001 24.9996C42.1372 24.14 39.1643 23.7021 36.1751 23.6996C34.3968 23.7233 32.6236 23.899 30.8751 24.2246C30.2501 22.6996 29.6001 21.2246 28.9001 19.7496C33.0115 17.6954 36.7607 14.9849 40.0001 11.7246C43.245 15.3827 45.0255 20.1098 45.0001 24.9996ZM27.1752 16.45C30.8846 14.5892 34.263 12.1315 37.1752 9.175C33.6878 6.47982 29.4077 5.01211 25.0002 5C23.3819 5.00653 21.7703 5.20798 20.2002 5.6C22.8078 9.02702 25.1401 12.655 27.1752 16.45ZM16.5499 6.90002C19.2594 10.395 21.676 14.1076 23.7749 18C19.3838 19.7148 14.714 20.6047 9.99993 20.625C8.5212 20.6089 7.04427 20.5171 5.57493 20.35C6.99545 14.4299 11.0351 9.47925 16.5499 6.90002ZM4.99999 24.0501V25.0001C5.01158 29.9329 6.84573 34.6875 10.15 38.3501C14.04 32.024 20.1012 27.3315 27.2 25.1501C26.675 23.8501 26.075 22.6001 25.475 21.3501C20.556 23.3334 15.3038 24.3601 9.99999 24.3751C8.32824 24.3693 6.65842 24.2608 4.99999 24.0501ZM12.9504 40.9249C16.3797 34.9906 21.9541 30.5973 28.5254 28.6499C30.2833 33.5074 31.5317 38.5344 32.2505 43.6499C25.7882 46.1922 18.4669 45.168 12.9504 40.9499V40.9249ZM32.2254 27.8C33.8208 32.3609 35.0088 37.0543 35.7754 41.825C40.3656 38.8934 43.5617 34.2166 44.6254 28.875C41.9005 27.9673 39.0475 27.503 36.1754 27.5C34.8535 27.512 33.5339 27.6122 32.2254 27.8Z" fill="#020E35"/>
</svg>
