<svg width="50" height="51" viewBox="0 0 50 51" fill="none" xmlns="http://www.w3.org/2000/svg">
<path d="M50 5.66667V45.3333C50 48.4629 47.5127 51 44.4444 51H34.0278C33.2607 51 32.6389 50.3657 32.6389 49.5833V32.5833H39.1389C39.799 32.5835 40.368 32.1097 40.5 31.45L41.5 26.35C41.5413 26.144 41.4907 25.9299 41.3619 25.7657C41.2331 25.6015 41.0394 25.5042 40.8333 25.5H32.6389V16.2917C32.6389 15.9005 32.9498 15.5833 33.3333 15.5833H40.2778C41.0448 15.5833 41.6667 14.9491 41.6667 14.1667V9.91667C41.6667 9.13426 41.0448 8.5 40.2778 8.5H33.3333C28.731 8.5 25 12.3056 25 17V25.5H21.5833C20.8163 25.5 20.1944 26.1343 20.1944 26.9167V31.1667C20.1944 31.9491 20.8163 32.5833 21.5833 32.5833H25V49.5833C25 50.3657 24.3782 51 23.6111 51H5.55556C2.48731 51 0 48.4629 0 45.3333V5.66667C0 2.53705 2.48731 0 5.55556 0H44.4444C47.5127 0 50 2.53705 50 5.66667Z" fill="#020E35"/>
</svg>
