<svg width="51" height="51" viewBox="0 0 51 51" fill="none" xmlns="http://www.w3.org/2000/svg">
<path fill-rule="evenodd" clip-rule="evenodd" d="M36.4 0H14C6.26801 0 0 6.26801 0 14V36.4C0 44.132 6.26801 50.4 14 50.4H36.4C44.132 50.4 50.4 44.132 50.4 36.4V14C50.4 6.26801 44.132 0 36.4 0ZM45.5 36.4C45.4846 41.4194 41.4194 45.4846 36.4 45.5H14C8.98059 45.4846 4.91537 41.4194 4.9 36.4V14C4.91537 8.98059 8.98059 4.91537 14 4.9H36.4C41.4194 4.91537 45.4846 8.98059 45.5 14V36.4ZM38.5 14.7C40.0464 14.7 41.3 13.4464 41.3 11.9C41.3 10.3536 40.0464 9.1 38.5 9.1C36.9536 9.1 35.7 10.3536 35.7 11.9C35.7 13.4464 36.9536 14.7 38.5 14.7ZM25.2 12.6C18.2412 12.6 12.6 18.2412 12.6 25.2C12.6 32.1588 18.2412 37.8 25.2 37.8C32.1588 37.8 37.8 32.1588 37.8 25.2C37.8075 21.856 36.4824 18.6468 34.1178 16.2823C31.7532 13.9177 28.544 12.5926 25.2 12.6ZM17.5 25.2C17.5 29.4526 20.9474 32.9 25.2 32.9C29.4526 32.9 32.9 29.4526 32.9 25.2C32.9 20.9474 29.4526 17.5 25.2 17.5C20.9474 17.5 17.5 20.9474 17.5 25.2Z" fill="#020E35"/>
</svg>
