<svg width="51" height="51" viewBox="0 0 51 51" fill="none" xmlns="http://www.w3.org/2000/svg">
<path fill-rule="evenodd" clip-rule="evenodd" d="M5.6 0H44.8C47.8928 0 50.4 2.50721 50.4 5.6V44.8C50.4 47.8928 47.8928 50.4 44.8 50.4H5.6C2.50721 50.4 0 47.8928 0 44.8V5.6C0 2.50721 2.50721 0 5.6 0ZM14 42C14.7732 42 15.4 41.3732 15.4 40.6V21C15.4 20.2268 14.7732 19.6 14 19.6H9.8C9.0268 19.6 8.4 20.2268 8.4 21V40.6C8.4 41.3732 9.0268 42 9.8 42H14ZM11.9 16.8C9.5804 16.8 7.7 14.9196 7.7 12.6C7.7 10.2804 9.5804 8.4 11.9 8.4C14.2196 8.4 16.1 10.2804 16.1 12.6C16.1 14.9196 14.2196 16.8 11.9 16.8ZM40.6 42.0001C41.3732 42.0001 42 41.3733 42 40.6001V27.7201C42.0909 23.2703 38.8013 19.4727 34.384 18.9281C31.2957 18.646 28.3031 20.0884 26.6 22.6801V21.0001C26.6 20.2269 25.9732 19.6001 25.2 19.6001H21C20.2268 19.6001 19.6 20.2269 19.6 21.0001V40.6001C19.6 41.3733 20.2268 42.0001 21 42.0001H25.2C25.9732 42.0001 26.6 41.3733 26.6 40.6001V30.1001C26.6 27.7805 28.4804 25.9001 30.8 25.9001C33.1196 25.9001 35 27.7805 35 30.1001V40.6001C35 41.3733 35.6268 42.0001 36.4 42.0001H40.6Z" fill="#020E35"/>
</svg>
