<svg width="49" height="42" viewBox="0 0 49 42" fill="none" xmlns="http://www.w3.org/2000/svg">
<path d="M48.9283 6.08699C47.664 7.78762 46.1358 9.27109 44.4026 10.4801C44.4026 10.9244 44.4026 11.3686 44.4026 11.8375C44.4165 19.905 41.2209 27.6407 35.5321 33.3104C29.8434 38.9801 22.1374 42.1095 14.1417 41.9971C9.51918 42.0126 4.95588 40.9483 0.809238 38.8873C0.585652 38.7889 0.441441 38.5658 0.44229 38.3197V38.0482C0.44229 37.6938 0.727057 37.4065 1.07833 37.4065C5.62213 37.2555 10.0038 35.6668 13.6035 32.8653C9.49072 32.7818 5.79028 30.3249 4.08731 26.5471C4.00129 26.3408 4.02807 26.1041 4.15798 25.9226C4.28789 25.7412 4.50215 25.6411 4.72335 25.6586C5.97331 25.7853 7.23576 25.668 8.44175 25.3131C3.9016 24.3627 0.490181 20.5618 0.00195302 15.9098C-0.0153993 15.6867 0.083776 15.4705 0.263651 15.3394C0.443526 15.2084 0.678099 15.1813 0.882628 15.2681C2.10101 15.8103 3.41624 16.0958 4.74781 16.1073C0.769561 13.4742 -0.948781 8.46601 0.564606 3.91511C0.720824 3.47289 1.09613 3.14621 1.55262 3.05512C2.00911 2.96402 2.47943 3.12195 2.79076 3.47086C8.15916 9.23246 15.5354 12.6658 23.3643 13.0469C23.1638 12.24 23.0651 11.4107 23.0707 10.5788C23.144 6.21688 25.8204 2.33117 29.847 0.740832C33.8736 -0.849502 38.4535 0.170291 41.4426 3.32278C43.4801 2.93137 45.4499 2.24123 47.2893 1.2743C47.424 1.18947 47.5949 1.18947 47.7296 1.2743C47.8137 1.41024 47.8137 1.58262 47.7296 1.71855C46.8387 3.77592 45.3336 5.5015 43.4241 6.65464C45.0962 6.45911 46.7389 6.06137 48.3168 5.46998C48.4496 5.37879 48.6242 5.37879 48.7571 5.46998C48.8684 5.52133 48.9516 5.61952 48.9846 5.73841C49.0176 5.8573 48.997 5.98481 48.9283 6.08699Z" fill="#020E35"/>
</svg>
